<svg xmlns="http://www.w3.org/2000/svg" version="1.1" xmlns:xlink="http://www.w3.org/1999/xlink" viewBox="0 0 11.909573149377586 3.481044704853364"><g transform="matrix(1,0,0,1,0.5161082899266818,0.7014598524266821)"><rect width="11.909573149377586" height="11.909573149377586" x="-0.5161082899266818" y="-4.915724074688793" fill="#ffffff"></rect><g clip-path="url(#SvgjsClipPath1002)"><g clip-path="url(#b176f64d2-2757-4aef-ab56-23397c69b55c848b6de2-46cf-47d3-838b-6c3153d3eaf3)"><path d=" M 7.94216926212879 0.9285499523869393 L 7.94216926212879 -0.14831871108883726 C 7.94216926212879 -0.16868810480704588 7.933386882978812 -0.18535156249999984 7.922653453103092 -0.18535156249999984 L 7.532377035851237 -0.18535156249999984 C 7.521643605975518 -0.18535156249999984 7.512863877709679 -0.16868810480704588 7.512863877709679 -0.14831871108883726 L 7.512863877709679 0.9285499523869393 C 7.512863877709679 0.948919346105148 7.521643605975518 0.9655854546822403 7.532377035851237 0.9655854546822403 L 7.922653453103092 0.9655854546822403 C 7.933386882978812 0.9655854546822403 7.94216926212879 0.948919346105148 7.94216926212879 0.9285499523869393" fill="#102036" transform="matrix(1,0,0,1,0,0)" fill-rule="nonzero"></path></g><g clip-path="url(#b176f64d2-2757-4aef-ab56-23397c69b55c848b6de2-46cf-47d3-838b-6c3153d3eaf3)"><path d=" M 7.883804746057238 -0.11934984922618966 L 7.5712257428970915 -0.11934984922618966 C 7.565311620384686 -0.11934984922618966 7.560473756832405 -0.1183266079488304 7.560473756832405 -0.11707539063558282 L 7.560473756832405 -0.07158886970758427 C 7.560473756832405 -0.07033765239433667 7.565311620384686 -0.06931441111697743 7.5712230920129535 -0.06931441111697743 L 7.883804746057238 -0.06931441111697743 C 7.889718868569643 -0.06931441111697743 7.894554081237787 -0.07033765239433667 7.894554081237787 -0.07158886970758427 L 7.8945567321219245 -0.11707539063558282 C 7.8945567321219245 -0.1183266079488304 7.889718868569643 -0.11934984922618966 7.883804746057238 -0.11934984922618966" fill="#3682ae" transform="matrix(1,0,0,1,0,0)" fill-rule="nonzero"></path></g><g clip-path="url(#b176f64d2-2757-4aef-ab56-23397c69b55c848b6de2-46cf-47d3-838b-6c3153d3eaf3)"><path d=" M 7.883804746057238 -0.04408594677338168 L 7.5712257428970915 -0.04408594677338168 C 7.565311620384686 -0.04408594677338168 7.560473756832405 -0.042434445955260414 7.560473756832405 -0.04041447224192424 L 7.560473756832405 0.03299381131411841 C 7.560473756832405 0.03501378502745456 7.565311620384686 0.036665285845575823 7.5712230920129535 0.036665285845575823 L 7.883804746057238 0.036665285845575823 C 7.889716217685505 0.036665285845575823 7.894554081237787 0.03501378502745456 7.894554081237787 0.03299381131411841 L 7.8945567321219245 -0.04041447224192424 C 7.8945567321219245 -0.042434445955260414 7.889718868569643 -0.04408594677338168 7.883804746057238 -0.04408594677338168" fill="#3682ae" transform="matrix(1,0,0,1,0,0)" fill-rule="nonzero"></path></g><g clip-path="url(#b176f64d2-2757-4aef-ab56-23397c69b55c848b6de2-46cf-47d3-838b-6c3153d3eaf3)"><path d=" M 7.883804746057238 0.08244870579705688 L 7.5712257428970915 0.08244340402878036 C 7.565311620384686 0.08244340402878036 7.560473756832405 0.09444395652257659 7.560473756832405 0.10911129845943868 L 7.560473756832405 0.8918908756392679 C 7.560473756832405 0.9065582175761301 7.565311620384686 0.9185614209540643 7.5712230920129535 0.9185614209540643 L 7.883804746057238 0.918566722722341 C 7.889716217685505 0.918566722722341 7.894554081237787 0.9065661702285447 7.894554081237787 0.8918988282916828 L 7.8945567321219245 0.10911925111185333 C 7.8945567321219245 0.0944519091749913 7.889718868569643 0.08244870579705688 7.883804746057238 0.08244870579705688" fill="#3682ae" transform="matrix(1,0,0,1,0,0)" fill-rule="nonzero"></path></g><g clip-path="url(#b176f64d2-2757-4aef-ab56-23397c69b55c848b6de2-46cf-47d3-838b-6c3153d3eaf3)"><path d=" M 6.331910899430188 0.9491261150679303 L 7.048943248213478 0.9491261150679303 L 7.048943248213478 0.9130555345989476 L 6.331910899430188 0.9130555345989476 Z M 5.926171875 1.3801757812499997 L 7.986340944524223 1.3801757812499997 L 7.986340944524223 1.3670061888512413 L 5.926171875 1.3670061888512413 Z M 6.587217550783737 0.9130555345989476 L 6.793636596859929 0.9130555345989476 L 6.793636596859929 0.6401523143357856 L 6.587217550783737 0.6401523143357856 Z" fill="#102036" transform="matrix(1,0,0,1,0,0)" fill-rule="nonzero"></path></g><g clip-path="url(#b176f64d2-2757-4aef-ab56-23397c69b55c848b6de2-46cf-47d3-838b-6c3153d3eaf3)"><path d=" M 7.405497768342828 -0.17579247429751935 L 5.975359030184976 -0.17579247429751935 C 5.948306757554273 -0.17579247429751935 5.926171875 -0.15366024262738356 5.926171875 -0.126607969996681 L 5.926171875 0.5931706947538218 C 5.926171875 0.6202229673845242 5.948306757554273 0.6423551990546601 5.975359030184976 0.6423551990546601 L 7.405497768342828 0.6423551990546601 C 7.43255004097353 0.6423551990546601 7.454682272643666 0.6202229673845242 7.454682272643666 0.5931706947538218 L 7.454682272643666 -0.12660796999668109 C 7.454682272643666 -0.15366024262738356 7.43255004097353 -0.17579247429751935 7.405497768342828 -0.17579247429751935" fill="#102036" transform="matrix(1,0,0,1,0,0)" fill-rule="nonzero"></path></g><g clip-path="url(#b176f64d2-2757-4aef-ab56-23397c69b55c848b6de2-46cf-47d3-838b-6c3153d3eaf3)"><path d=" M 5.926171875 0.5566918781275505 L 5.926171875 0.5931706947538218 C 5.926171875 0.6202229673845242 5.948306757554274 0.6423551990546601 5.975359030184976 0.6423551990546601 L 7.405497768342828 0.6423551990546601 C 7.4325473900893915 0.6423551990546601 7.454682272643666 0.6202229673845242 7.454682272643666 0.5931706947538218 L 7.454682272643666 0.5566971798958269 Z" fill="#102036" transform="matrix(1,0,0,1,0,0)" fill-rule="nonzero"></path></g><g clip-path="url(#b176f64d2-2757-4aef-ab56-23397c69b55c848b6de2-46cf-47d3-838b-6c3153d3eaf3)"><path d=" M 5.9693282687704885 -0.12592404188901604 L 5.9693282687704885 0.5566918781275505 L 7.411523227989039 0.554128473165876 L 7.411523227989039 -0.12592404188901604 Z" fill="#eda0a0" transform="matrix(1,0,0,1,0,0)" fill-rule="nonzero"></path></g><g clip-path="url(#b176f64d2-2757-4aef-ab56-23397c69b55c848b6de2-46cf-47d3-838b-6c3153d3eaf3)"><path d=" M 6.900589168301216 -0.12592404188901604 L 6.55067246205401 0.5566918781275505 L 7.411525878873178 0.554128473165876 L 7.411525878873178 -0.12592404188901604 Z" fill="#a5b2ba" transform="matrix(1,0,0,1,0,0)" fill-rule="nonzero"></path></g></g><g><path d=" M 0.48193359375 0.2871093749999999 Q 0.48193359375 0.2734374999999999 0.457275390625 0.2622070312499999 Q 0.4326171875 0.2509765624999999 0.3818359375 0.2509765624999999 Q 0.3466796875 0.2509765624999999 0.326171875 0.2558593749999999 Q 0.3056640625 0.2607421874999999 0.295166015625 0.2687988281249999 Q 0.28466796875 0.2768554687499999 0.28173828125 0.2868652343749999 Q 0.27880859375 0.2968749999999999 0.27880859375 0.3071289062499999 Q 0.27880859375 0.3281249999999999 0.298583984375 0.3439941406249999 Q 0.318359375 0.3598632812499999 0.350830078125 0.3740234374999999 Q 0.38330078125 0.3881835937499999 0.4248046875 0.4023437499999999 Q 0.46630859375 0.4165039062499999 0.509765625 0.4338378906249999 Q 0.55322265625 0.4511718749999999 0.5947265625 0.4736328124999999 Q 0.63623046875 0.4960937499999999 0.668701171875 0.5263671874999999 Q 0.701171875 0.5566406249999999 0.720947265625 0.5971679687499999 Q 0.74072265625 0.6376953124999999 0.74072265625 0.6909179687499999 Q 0.74072265625 0.7592773437499999 0.71435546875 0.8056640624999999 Q 0.68798828125 0.8520507812499999 0.640869140625 0.8803710937499999 Q 0.59375 0.9086914062499999 0.529052734375 0.9208984374999999 Q 0.46435546875 0.9331054687499999 0.3876953125 0.9331054687499999 Q 0.3427734375 0.9331054687499999 0.29833984375 0.9262695312499999 Q 0.25390625 0.9194335937499999 0.2138671875 0.9064941406249999 Q 0.173828125 0.8935546874999999 0.139404296875 0.8747558593749999 Q 0.10498046875 0.8559570312499999 0.079833984375 0.8322753906249999 Q 0.0546875 0.8085937499999999 0.040283203125 0.7800292968749999 Q 0.02587890625 0.7514648437499999 0.02587890625 0.7187499999999999 Q 0.02587890625 0.6938476562499999 0.03369140625 0.6752929687499999 Q 0.04150390625 0.6567382812499999 0.054443359375 0.6447753906249999 Q 0.0673828125 0.6328124999999999 0.083984375 0.6269531249999999 Q 0.1005859375 0.6210937499999999 0.11865234375 0.6210937499999999 Q 0.140625 0.6210937499999999 0.16259765625 0.6293945312499999 Q 0.1845703125 0.6376953124999999 0.2021484375 0.6538085937499999 Q 0.2197265625 0.6699218749999999 0.230712890625 0.6933593749999999 Q 0.24169921875 0.7167968749999999 0.24169921875 0.7470703124999999 Q 0.24169921875 0.7543945312499999 0.248779296875 0.7626953124999999 Q 0.255859375 0.7709960937499999 0.269287109375 0.7780761718749999 Q 0.28271484375 0.7851562499999999 0.302734375 0.7900390624999999 Q 0.32275390625 0.7949218749999999 0.3486328125 0.7949218749999999 Q 0.384765625 0.7949218749999999 0.40625 0.7902832031249999 Q 0.427734375 0.7856445312499999 0.439208984375 0.7778320312499999 Q 0.45068359375 0.7700195312499999 0.4541015625 0.7602539062499999 Q 0.45751953125 0.7504882812499999 0.45751953125 0.7407226562499999 Q 0.45751953125 0.7285156249999999 0.439453125 0.7192382812499999 Q 0.42138671875 0.7099609374999999 0.39208984375 0.7004394531249999 Q 0.36279296875 0.6909179687499999 0.324951171875 0.6801757812499999 Q 0.287109375 0.6694335937499999 0.248046875 0.6545410156249999 Q 0.208984375 0.6396484374999999 0.171142578125 0.6191406249999999 Q 0.13330078125 0.5986328124999999 0.10400390625 0.5695800781249999 Q 0.07470703125 0.5405273437499999 0.056640625 0.5017089843749999 Q 0.03857421875 0.4628906249999999 0.03857421875 0.4111328124999999 Q 0.03857421875 0.3598632812499999 0.051025390625 0.3193359374999999 Q 0.0634765625 0.2788085937499999 0.086181640625 0.2475585937499999 Q 0.10888671875 0.2163085937499999 0.140625 0.1940917968749999 Q 0.17236328125 0.1718749999999999 0.211181640625 0.1574707031249999 Q 0.25 0.1430664062499999 0.294677734375 0.1364746093749999 Q 0.33935546875 0.1298828124999999 0.3876953125 0.1298828124999999 Q 0.47412109375 0.1298828124999999 0.534912109375 0.1472167968749999 Q 0.595703125 0.1645507812499999 0.6337890625 0.1918945312499999 Q 0.671875 0.2192382812499999 0.689208984375 0.2526855468749999 Q 0.70654296875 0.2861328124999999 0.70654296875 0.3178710937499999 Q 0.70654296875 0.3466796874999999 0.6943359375 0.3676757812499999 Q 0.68212890625 0.3886718749999999 0.66259765625 0.4023437499999999 Q 0.64306640625 0.4160156249999999 0.6181640625 0.4223632812499999 Q 0.59326171875 0.4287109374999999 0.56787109375 0.4287109374999999 Q 0.54345703125 0.4287109374999999 0.520263671875 0.4233398437499999 Q 0.4970703125 0.4179687499999999 0.479248046875 0.4072265624999999 Q 0.46142578125 0.3964843749999999 0.450439453125 0.3811035156249999 Q 0.439453125 0.3657226562499999 0.439453125 0.3457031249999999 Q 0.439453125 0.3310546874999999 0.446044921875 0.3237304687499999 Q 0.45263671875 0.3164062499999999 0.460693359375 0.3115234374999999 Q 0.46875 0.3066406249999999 0.475341796875 0.3017578124999999 Q 0.48193359375 0.2968749999999999 0.48193359375 0.2871093749999999 M 1.3134765625 0.4760742187499999 Q 1.3134765625 0.4560546874999999 1.30810546875 0.4448242187499999 Q 1.302734375 0.4335937499999999 1.294677734375 0.4279785156249999 Q 1.28662109375 0.4223632812499999 1.27734375 0.4201660156249999 Q 1.26806640625 0.4179687499999999 1.260009765625 0.4155273437499999 Q 1.251953125 0.4130859374999999 1.24658203125 0.4084472656249999 Q 1.2412109375 0.4038085937499999 1.2412109375 0.3930664062499999 Q 1.2412109375 0.3374023437499999 1.298828125 0.3127441406249999 Q 1.3564453125 0.2880859374999999 1.46533203125 0.2880859374999999 Q 1.501953125 0.2880859374999999 1.52685546875 0.2949218749999999 Q 1.5517578125 0.3017578124999999 1.568115234375 0.3139648437499999 Q 1.58447265625 0.3261718749999999 1.593505859375 0.3432617187499999 Q 1.6025390625 0.3603515624999999 1.606689453125 0.3811035156249999 Q 1.61083984375 0.4018554687499999 1.611572265625 0.4252929687499999 Q 1.6123046875 0.4487304687499999 1.6123046875 0.4741210937499999 L 1.6123046875 0.7358398437499999 Q 1.6123046875 0.7553710937499999 1.617431640625 0.7661132812499999 Q 1.62255859375 0.7768554687499999 1.630615234375 0.7824707031249999 Q 1.638671875 0.7880859374999999 1.647705078125 0.7900390624999999 Q 1.65673828125 0.7919921874999999 1.664794921875 0.7944335937499999 Q 1.6728515625 0.7968749999999999 1.677978515625 0.8015136718749999 Q 1.68310546875 0.8061523437499999 1.68310546875 0.8168945312499999 Q 1.68310546875 0.8725585937499999 1.626708984375 0.8972167968749999 Q 1.5703125 0.9218749999999999 1.46533203125 0.9218749999999999 Q 1.439453125 0.9218749999999999 1.41943359375 0.9179687499999999 Q 1.3994140625 0.9140624999999999 1.384521484375 0.9077148437499999 Q 1.36962890625 0.9013671874999999 1.35888671875 0.8933105468749999 Q 1.34814453125 0.8852539062499999 1.3408203125 0.8764648437499999 Q 1.32373046875 0.8569335937499999 1.3193359375 0.8310546874999999 Q 1.2939453125 0.8598632812499999 1.25927734375 0.8823242187499999 Q 1.24462890625 0.8920898437499999 1.22607421875 0.9011230468749999 Q 1.20751953125 0.9101562499999999 1.185546875 0.9172363281249999 Q 1.16357421875 0.9243164062499999 1.137939453125 0.9287109374999999 Q 1.1123046875 0.9331054687499999 1.08349609375 0.9331054687499999 Q 1.02978515625 0.9331054687499999 0.99072265625 0.9196777343749999 Q 0.95166015625 0.9062499999999999 0.924560546875 0.8837890624999999 Q 0.8974609375 0.8613281249999999 0.880859375 0.8315429687499999 Q 0.8642578125 0.8017578124999999 0.85498046875 0.7690429687499999 Q 0.845703125 0.7363281249999999 0.842529296875 0.7028808593749999 Q 0.83935546875 0.6694335937499999 0.83935546875 0.6391601562499999 L 0.83935546875 0.4785156249999999 Q 0.83935546875 0.4580078124999999 0.833984375 0.4465332031249999 Q 0.82861328125 0.4350585937499999 0.8203125 0.4289550781249999 Q 0.81201171875 0.4228515624999999 0.802734375 0.4206542968749999 Q 0.79345703125 0.4184570312499999 0.78515625 0.4157714843749999 Q 0.77685546875 0.4130859374999999 0.771484375 0.4084472656249999 Q 0.76611328125 0.4038085937499999 0.76611328125 0.3930664062499999 Q 0.76611328125 0.3374023437499999 0.82373046875 0.3127441406249999 Q 0.88134765625 0.2880859374999999 0.990234375 0.2880859374999999 Q 1.03857421875 0.2880859374999999 1.0673828125 0.2998046874999999 Q 1.09619140625 0.3115234374999999 1.111328125 0.3317871093749999 Q 1.12646484375 0.3520507812499999 1.130859375 0.3798828124999999 Q 1.13525390625 0.4077148437499999 1.13525390625 0.4399414062499999 L 1.13525390625 0.6811523437499999 Q 1.13525390625 0.7114257812499999 1.139892578125 0.7351074218749999 Q 1.14453125 0.7587890624999999 1.155517578125 0.7753906249999999 Q 1.16650390625 0.7919921874999999 1.1845703125 0.8005371093749999 Q 1.20263671875 0.8090820312499999 1.2294921875 0.8090820312499999 Q 1.24658203125 0.8090820312499999 1.26171875 0.8037109374999999 Q 1.27685546875 0.7983398437499999 1.2880859375 0.7885742187499999 Q 1.29931640625 0.7788085937499999 1.305908203125 0.7653808593749999 Q 1.3125 0.7519531249999999 1.3125 0.7358398437499999 L 1.3134765625 0.4760742187499999 M 2.5078125 0.6079101562499999 Q 2.5078125 0.6455078124999999 2.503173828125 0.6840820312499999 Q 2.49853515625 0.7226562499999999 2.4873046875 0.7587890624999999 Q 2.47607421875 0.7949218749999999 2.45751953125 0.8266601562499999 Q 2.43896484375 0.8583984374999999 2.411376953125 0.8820800781249999 Q 2.3837890625 0.9057617187499999 2.345947265625 0.9194335937499999 Q 2.30810546875 0.9331054687499999 2.2587890625 0.9331054687499999 Q 2.203125 0.9331054687499999 2.162841796875 0.9213867187499999 Q 2.12255859375 0.9096679687499999 2.09423828125 0.8930664062499999 L 2.09423828125 1.0068359375 Q 2.09423828125 1.02734375 2.099609375 1.038330078125 Q 2.10498046875 1.04931640625 2.11279296875 1.054931640625 Q 2.12060546875 1.060546875 2.130126953125 1.062744140625 Q 2.1396484375 1.06494140625 2.1474609375 1.0673828125 Q 2.1552734375 1.06982421875 2.16064453125 1.074462890625 Q 2.166015625 1.0791015625 2.166015625 1.08984375 Q 2.166015625 1.1455078125 2.1083984375 1.170166015625 Q 2.05078125 1.19482421875 1.94189453125 1.19482421875 Q 1.8896484375 1.19482421875 1.84912109375 1.18896484375 Q 1.80859375 1.18310546875 1.78076171875 1.170166015625 Q 1.7529296875 1.1572265625 1.738525390625 1.137451171875 Q 1.72412109375 1.11767578125 1.72412109375 1.08984375 Q 1.72412109375 1.0791015625 1.729248046875 1.074462890625 Q 1.734375 1.06982421875 1.742431640625 1.0673828125 Q 1.75048828125 1.06494140625 1.759521484375 1.06298828125 Q 1.7685546875 1.06103515625 1.776611328125 1.055419921875 Q 1.78466796875 1.0498046875 1.789794921875 1.039306640625 Q 1.794921875 1.02880859375 1.794921875 1.0087890625 L 1.794921875 0.4741210937499999 Q 1.794921875 0.4545898437499999 1.789794921875 0.4438476562499999 Q 1.78466796875 0.4331054687499999 1.776611328125 0.4274902343749999 Q 1.7685546875 0.4218749999999999 1.759521484375 0.4199218749999999 Q 1.75048828125 0.4179687499999999 1.742431640625 0.4155273437499999 Q 1.734375 0.4130859374999999 1.729248046875 0.4084472656249999 Q 1.72412109375 0.4038085937499999 1.72412109375 0.3930664062499999 Q 1.72412109375 0.3652343749999999 1.738525390625 0.3454589843749999 Q 1.7529296875 0.3256835937499999 1.78076171875 0.3127441406249999 Q 1.80859375 0.2998046874999999 1.84912109375 0.2939453124999999 Q 1.8896484375 0.2880859374999999 1.94189453125 0.2880859374999999 Q 1.9990234375 0.2880859374999999 2.030029296875 0.2963867187499999 Q 2.06103515625 0.3046874999999999 2.0751953125 0.3256835937499999 Q 2.0888671875 0.3154296874999999 2.1064453125 0.3061523437499999 Q 2.1240234375 0.2968749999999999 2.146240234375 0.2897949218749999 Q 2.16845703125 0.2827148437499999 2.195556640625 0.2783203124999999 Q 2.22265625 0.2739257812499999 2.255859375 0.2739257812499999 Q 2.30517578125 0.2739257812499999 2.34326171875 0.2880859374999999 Q 2.38134765625 0.3022460937499999 2.409423828125 0.3264160156249999 Q 2.4375 0.3505859374999999 2.456298828125 0.3833007812499999 Q 2.47509765625 0.4160156249999999 2.486572265625 0.4531249999999999 Q 2.498046875 0.4902343749999999 2.5029296875 0.5297851562499999 Q 2.5078125 0.5693359374999999 2.5078125 0.6079101562499999 M 2.09423828125 0.7958984374999999 Q 2.1044921875 0.7998046874999999 2.115234375 0.8017578124999999 Q 2.1259765625 0.8037109374999999 2.13720703125 0.8037109374999999 Q 2.16455078125 0.8037109374999999 2.17919921875 0.7951660156249999 Q 2.19384765625 0.7866210937499999 2.20068359375 0.7646484374999999 Q 2.20751953125 0.7426757812499999 2.208740234375 0.7050781249999999 Q 2.2099609375 0.6674804687499999 2.2099609375 0.6098632812499999 Q 2.2099609375 0.5493164062499999 2.20556640625 0.5085449218749999 Q 2.201171875 0.4677734374999999 2.19140625 0.4436035156249999 Q 2.181640625 0.4194335937499999 2.166015625 0.4091796874999999 Q 2.150390625 0.3989257812499999 2.1279296875 0.3989257812499999 Q 2.119140625 0.3989257812499999 2.1103515625 0.4003906249999999 Q 2.1015625 0.4018554687499999 2.09423828125 0.4047851562499999 Q 2.09521484375 0.4199218749999999 2.09521484375 0.4370117187499999 Q 2.09521484375 0.4541015624999999 2.09521484375 0.4741210937499999 L 2.09423828125 0.7958984374999999 M 2.92138671875 0.7329101562499999 Q 2.92138671875 0.7529296874999999 2.9267578125 0.7641601562499999 Q 2.93212890625 0.7753906249999999 2.940185546875 0.7810058593749999 Q 2.9482421875 0.7866210937499999 2.95751953125 0.7888183593749999 Q 2.966796875 0.7910156249999999 2.974853515625 0.7934570312499999 Q 2.98291015625 0.7958984374999999 2.98828125 0.8005371093749999 Q 2.99365234375 0.8051757812499999 2.99365234375 0.8159179687499999 Q 2.99365234375 0.8715820312499999 2.93603515625 0.8962402343749999 Q 2.87841796875 0.9208984374999999 2.76953125 0.9208984374999999 Q 2.716796875 0.9208984374999999 2.67626953125 0.9150390624999999 Q 2.6357421875 0.9091796874999999 2.60791015625 0.8962402343749999 Q 2.580078125 0.8833007812499999 2.565673828125 0.8635253906249999 Q 2.55126953125 0.8437499999999999 2.55126953125 0.8159179687499999 Q 2.55126953125 0.8051757812499999 2.556640625 0.8005371093749999 Q 2.56201171875 0.7958984374999999 2.56982421875 0.7934570312499999 Q 2.57763671875 0.7910156249999999 2.5869140625 0.7890624999999999 Q 2.59619140625 0.7871093749999999 2.60400390625 0.7814941406249999 Q 2.61181640625 0.7758789062499999 2.6171875 0.7653808593749999 Q 2.62255859375 0.7548828124999999 2.62255859375 0.7348632812499999 L 2.62255859375 0.4741210937499999 Q 2.62255859375 0.4545898437499999 2.6171875 0.4438476562499999 Q 2.61181640625 0.4331054687499999 2.60400390625 0.4274902343749999 Q 2.59619140625 0.4218749999999999 2.5869140625 0.4199218749999999 Q 2.57763671875 0.4179687499999999 2.56982421875 0.4155273437499999 Q 2.56201171875 0.4130859374999999 2.556640625 0.4084472656249999 Q 2.55126953125 0.4038085937499999 2.55126953125 0.3930664062499999 Q 2.55126953125 0.3652343749999999 2.565673828125 0.3454589843749999 Q 2.580078125 0.3256835937499999 2.60791015625 0.3127441406249999 Q 2.6357421875 0.2998046874999999 2.67626953125 0.2939453124999999 Q 2.716796875 0.2880859374999999 2.76953125 0.2880859374999999 Q 2.81787109375 0.2880859374999999 2.846923828125 0.2976074218749999 Q 2.8759765625 0.3071289062499999 2.892578125 0.3256835937499999 Q 2.90625 0.3168945312499999 2.9208984375 0.3088378906249999 Q 2.935546875 0.3007812499999999 2.9521484375 0.2946777343749999 Q 2.96875 0.2885742187499999 2.98828125 0.2851562499999999 Q 3.0078125 0.2817382812499999 3.03125 0.2817382812499999 Q 3.060546875 0.2817382812499999 3.087646484375 0.2878417968749999 Q 3.11474609375 0.2939453124999999 3.1357421875 0.3078613281249999 Q 3.15673828125 0.3217773437499999 3.169189453125 0.3439941406249999 Q 3.181640625 0.3662109374999999 3.181640625 0.3989257812499999 Q 3.181640625 0.4204101562499999 3.17431640625 0.4409179687499999 Q 3.1669921875 0.4614257812499999 3.152587890625 0.4772949218749999 Q 3.13818359375 0.4931640624999999 3.116455078125 0.5029296874999999 Q 3.0947265625 0.5126953124999999 3.06640625 0.5126953124999999 Q 3.0380859375 0.5126953124999999 3.02197265625 0.5043945312499999 Q 3.005859375 0.4960937499999999 2.9970703125 0.4838867187499999 Q 2.98828125 0.4716796874999999 2.984130859375 0.4572753906249999 Q 2.97998046875 0.4428710937499999 2.975341796875 0.4306640624999999 Q 2.970703125 0.4184570312499999 2.963134765625 0.4101562499999999 Q 2.95556640625 0.4018554687499999 2.9404296875 0.4018554687499999 Q 2.92529296875 0.4018554687499999 2.92041015625 0.4055175781249999 Q 2.91552734375 0.4091796874999999 2.91552734375 0.4160156249999999 Q 2.91552734375 0.4248046874999999 2.9189453125 0.4384765624999999 Q 2.92236328125 0.4521484374999999 2.92236328125 0.4716796874999999 L 2.92138671875 0.7329101562499999 M 3.57861328125 0.3989257812499999 Q 3.56298828125 0.3989257812499999 3.54931640625 0.4060058593749999 Q 3.53564453125 0.4130859374999999 3.525634765625 0.4277343749999999 Q 3.515625 0.4423828124999999 3.510009765625 0.4650878906249999 Q 3.50439453125 0.4877929687499999 3.50439453125 0.5190429687499999 L 3.66015625 0.5190429687499999 Q 3.66015625 0.4848632812499999 3.65478515625 0.4616699218749999 Q 3.6494140625 0.4384765624999999 3.63916015625 0.4245605468749999 Q 3.62890625 0.4106445312499999 3.613525390625 0.4047851562499999 Q 3.59814453125 0.3989257812499999 3.57861328125 0.3989257812499999 M 3.54248046875 0.2739257812499999 Q 3.60791015625 0.2739257812499999 3.660400390625 0.2934570312499999 Q 3.712890625 0.3129882812499999 3.749755859375 0.3471679687499999 Q 3.78662109375 0.3813476562499999 3.806396484375 0.4274902343749999 Q 3.826171875 0.4736328124999999 3.826171875 0.5268554687499999 Q 3.826171875 0.5488281249999999 3.820068359375 0.5610351562499999 Q 3.81396484375 0.5732421874999999 3.802734375 0.5791015624999999 Q 3.79150390625 0.5849609374999999 3.77490234375 0.5864257812499999 Q 3.75830078125 0.5878906249999999 3.7373046875 0.5878906249999999 L 3.50244140625 0.5878906249999999 Q 3.50244140625 0.6416015624999999 3.513427734375 0.6750488281249999 Q 3.5244140625 0.7084960937499999 3.5439453125 0.7270507812499999 Q 3.5634765625 0.7456054687499999 3.5908203125 0.7521972656249999 Q 3.6181640625 0.7587890624999999 3.6513671875 0.7587890624999999 Q 3.6689453125 0.7587890624999999 3.687744140625 0.7553710937499999 Q 3.70654296875 0.7519531249999999 3.723876953125 0.7465820312499999 Q 3.7412109375 0.7412109374999999 3.755859375 0.7353515624999999 Q 3.7705078125 0.7294921874999999 3.7802734375 0.7241210937499999 Q 3.7880859375 0.7197265624999999 3.79541015625 0.7197265624999999 Q 3.806640625 0.7197265624999999 3.81298828125 0.7292480468749999 Q 3.8193359375 0.7387695312499999 3.8193359375 0.7504882812499999 Q 3.8193359375 0.7543945312499999 3.81884765625 0.7578124999999999 Q 3.818359375 0.7612304687499999 3.81689453125 0.7646484374999999 Q 3.802734375 0.8007812499999999 3.7783203125 0.8315429687499999 Q 3.75390625 0.8623046874999999 3.718994140625 0.8850097656249999 Q 3.68408203125 0.9077148437499999 3.63818359375 0.9204101562499999 Q 3.59228515625 0.9331054687499999 3.53515625 0.9331054687499999 Q 3.48046875 0.9331054687499999 3.435302734375 0.9201660156249999 Q 3.39013671875 0.9072265624999999 3.353759765625 0.8840332031249999 Q 3.3173828125 0.8608398437499999 3.2900390625 0.8295898437499999 Q 3.2626953125 0.7983398437499999 3.24462890625 0.7614746093749999 Q 3.2265625 0.7246093749999999 3.217529296875 0.6843261718749999 Q 3.20849609375 0.6440429687499999 3.20849609375 0.6030273437499999 Q 3.20849609375 0.5615234374999999 3.2177734375 0.5207519531249999 Q 3.22705078125 0.4799804687499999 3.24560546875 0.4433593749999999 Q 3.26416015625 0.4067382812499999 3.2919921875 0.3757324218749999 Q 3.31982421875 0.3447265624999999 3.35693359375 0.3220214843749999 Q 3.39404296875 0.2993164062499999 3.4404296875 0.2866210937499999 Q 3.48681640625 0.2739257812499999 3.54248046875 0.2739257812499999 M 4.6103515625 0.3339843749999999 Q 4.61865234375 0.3286132812499999 4.632080078125 0.3186035156249999 Q 4.6455078125 0.3085937499999999 4.671875 0.2985839843749999 Q 4.6982421875 0.2885742187499999 4.74169921875 0.2812499999999999 Q 4.78515625 0.2739257812499999 4.853515625 0.2739257812499999 Q 4.90478515625 0.2739257812499999 4.94287109375 0.2861328124999999 Q 4.98095703125 0.2983398437499999 5.008056640625 0.3193359374999999 Q 5.03515625 0.3403320312499999 5.052734375 0.3688964843749999 Q 5.0703125 0.3974609374999999 5.08056640625 0.4304199218749999 Q 5.0908203125 0.4633789062499999 5.0947265625 0.4990234374999999 Q 5.0986328125 0.5346679687499999 5.0986328125 0.5698242187499999 L 5.0986328125 0.5747070312499999 Q 5.09814453125 0.6328124999999999 5.097900390625 0.6643066406249999 Q 5.09765625 0.6958007812499999 5.09765625 0.7104492187499999 Q 5.09765625 0.7250976562499999 5.09765625 0.7277832031249999 Q 5.09765625 0.7304687499999999 5.09765625 0.7304687499999999 Q 5.09765625 0.7509765624999999 5.10302734375 0.7624511718749999 Q 5.1083984375 0.7739257812499999 5.116455078125 0.7800292968749999 Q 5.12451171875 0.7861328124999999 5.134033203125 0.7883300781249999 Q 5.1435546875 0.7905273437499999 5.151611328125 0.7932128906249999 Q 5.15966796875 0.7958984374999999 5.1650390625 0.8005371093749999 Q 5.17041015625 0.8051757812499999 5.17041015625 0.8159179687499999 Q 5.17041015625 0.8437499999999999 5.156494140625 0.8635253906249999 Q 5.142578125 0.8833007812499999 5.11572265625 0.8962402343749999 Q 5.0888671875 0.9091796874999999 5.049560546875 0.9150390624999999 Q 5.01025390625 0.9208984374999999 4.95947265625 0.9208984374999999 Q 4.91015625 0.9208984374999999 4.871826171875 0.9150390624999999 Q 4.83349609375 0.9091796874999999 4.80712890625 0.8962402343749999 Q 4.78076171875 0.8833007812499999 4.76708984375 0.8635253906249999 Q 4.75341796875 0.8437499999999999 4.75341796875 0.8159179687499999 Q 4.75341796875 0.8051757812499999 4.757080078125 0.8005371093749999 Q 4.7607421875 0.7958984374999999 4.76611328125 0.7934570312499999 Q 4.771484375 0.7910156249999999 4.77783203125 0.7890624999999999 Q 4.7841796875 0.7871093749999999 4.78955078125 0.7814941406249999 Q 4.794921875 0.7758789062499999 4.798583984375 0.7653808593749999 Q 4.80224609375 0.7548828124999999 4.80224609375 0.7348632812499999 L 4.80224609375 0.5249023437499999 Q 4.80224609375 0.4951171874999999 4.798583984375 0.4716796874999999 Q 4.794921875 0.4482421874999999 4.78662109375 0.4321289062499999 Q 4.7783203125 0.4160156249999999 4.764404296875 0.4074707031249999 Q 4.75048828125 0.3989257812499999 4.7294921875 0.3989257812499999 Q 4.697265625 0.3989257812499999 4.682861328125 0.4191894531249999 Q 4.66845703125 0.4394531249999999 4.66845703125 0.4716796874999999 L 4.66845703125 0.7290039062499999 Q 4.66845703125 0.7499999999999999 4.67236328125 0.7617187499999999 Q 4.67626953125 0.7734374999999999 4.682373046875 0.7795410156249999 Q 4.6884765625 0.7856445312499999 4.695556640625 0.7880859374999999 Q 4.70263671875 0.7905273437499999 4.708740234375 0.7932128906249999 Q 4.71484375 0.7958984374999999 4.71875 0.8005371093749999 Q 4.72265625 0.8051757812499999 4.72265625 0.8159179687499999 Q 4.72265625 0.8437499999999999 4.711669921875 0.8635253906249999 Q 4.70068359375 0.8833007812499999 4.677490234375 0.8962402343749999 Q 4.654296875 0.9091796874999999 4.617919921875 0.9150390624999999 Q 4.58154296875 0.9208984374999999 4.5302734375 0.9208984374999999 Q 4.48095703125 0.9208984374999999 4.442626953125 0.9150390624999999 Q 4.404296875 0.9091796874999999 4.3779296875 0.8962402343749999 Q 4.3515625 0.8833007812499999 4.337890625 0.8635253906249999 Q 4.32421875 0.8437499999999999 4.32421875 0.8159179687499999 Q 4.32421875 0.8051757812499999 4.327880859375 0.8005371093749999 Q 4.33154296875 0.7958984374999999 4.3369140625 0.7934570312499999 Q 4.34228515625 0.7910156249999999 4.348876953125 0.7890624999999999 Q 4.35546875 0.7871093749999999 4.36083984375 0.7814941406249999 Q 4.3662109375 0.7758789062499999 4.369873046875 0.7653808593749999 Q 4.37353515625 0.7548828124999999 4.37353515625 0.7348632812499999 L 4.37353515625 0.5249023437499999 Q 4.37353515625 0.4653320312499999 4.359130859375 0.4326171874999999 Q 4.3447265625 0.3999023437499999 4.3076171875 0.3999023437499999 Q 4.29296875 0.3999023437499999 4.27978515625 0.4052734374999999 Q 4.2666015625 0.4106445312499999 4.25634765625 0.4206542968749999 Q 4.24609375 0.4306640624999999 4.240234375 0.4443359374999999 Q 4.234375 0.4580078124999999 4.234375 0.4741210937499999 L 4.234375 0.7329101562499999 Q 4.234375 0.7529296874999999 4.238525390625 0.7641601562499999 Q 4.24267578125 0.7753906249999999 4.2490234375 0.7810058593749999 Q 4.25537109375 0.7866210937499999 4.262939453125 0.7888183593749999 Q 4.2705078125 0.7910156249999999 4.27685546875 0.7934570312499999 Q 4.283203125 0.7958984374999999 4.287353515625 0.8005371093749999 Q 4.29150390625 0.8051757812499999 4.29150390625 0.8159179687499999 Q 4.29150390625 0.8715820312499999 4.236083984375 0.8962402343749999 Q 4.1806640625 0.9208984374999999 4.07666015625 0.9208984374999999 Q 4.0263671875 0.9208984374999999 3.98681640625 0.9150390624999999 Q 3.947265625 0.9091796874999999 3.920166015625 0.8962402343749999 Q 3.89306640625 0.8833007812499999 3.878662109375 0.8635253906249999 Q 3.8642578125 0.8437499999999999 3.8642578125 0.8159179687499999 Q 3.8642578125 0.8051757812499999 3.86962890625 0.8005371093749999 Q 3.875 0.7958984374999999 3.8828125 0.7934570312499999 Q 3.890625 0.7910156249999999 3.89990234375 0.7890624999999999 Q 3.9091796875 0.7871093749999999 3.9169921875 0.7814941406249999 Q 3.9248046875 0.7758789062499999 3.93017578125 0.7653808593749999 Q 3.935546875 0.7548828124999999 3.935546875 0.7348632812499999 L 3.935546875 0.4741210937499999 Q 3.935546875 0.4545898437499999 3.93017578125 0.4438476562499999 Q 3.9248046875 0.4331054687499999 3.9169921875 0.4274902343749999 Q 3.9091796875 0.4218749999999999 3.89990234375 0.4199218749999999 Q 3.890625 0.4179687499999999 3.8828125 0.4155273437499999 Q 3.875 0.4130859374999999 3.86962890625 0.4084472656249999 Q 3.8642578125 0.4038085937499999 3.8642578125 0.3930664062499999 Q 3.8642578125 0.3652343749999999 3.87841796875 0.3454589843749999 Q 3.892578125 0.3256835937499999 3.919677734375 0.3127441406249999 Q 3.94677734375 0.2998046874999999 3.98583984375 0.2939453124999999 Q 4.02490234375 0.2880859374999999 4.07421875 0.2880859374999999 Q 4.0966796875 0.2880859374999999 4.11474609375 0.2902832031249999 Q 4.1328125 0.2924804687499999 4.146728515625 0.2961425781249999 Q 4.16064453125 0.2998046874999999 4.1708984375 0.3044433593749999 Q 4.18115234375 0.3090820312499999 4.1884765625 0.3139648437499999 Q 4.20556640625 0.3256835937499999 4.21240234375 0.3398437499999999 Q 4.236328125 0.3217773437499999 4.27001953125 0.3071289062499999 Q 4.298828125 0.2944335937499999 4.34033203125 0.2841796874999999 Q 4.3818359375 0.2739257812499999 4.4375 0.2739257812499999 Q 4.4951171875 0.2739257812499999 4.53955078125 0.2902832031249999 Q 4.583984375 0.3066406249999999 4.6103515625 0.3339843749999999 M 5.5615234375 0.3989257812499999 Q 5.5458984375 0.3989257812499999 5.5322265625 0.4060058593749999 Q 5.5185546875 0.4130859374999999 5.508544921875 0.4277343749999999 Q 5.49853515625 0.4423828124999999 5.492919921875 0.4650878906249999 Q 5.4873046875 0.4877929687499999 5.4873046875 0.5190429687499999 L 5.64306640625 0.5190429687499999 Q 5.64306640625 0.4848632812499999 5.6376953125 0.4616699218749999 Q 5.63232421875 0.4384765624999999 5.6220703125 0.4245605468749999 Q 5.61181640625 0.4106445312499999 5.596435546875 0.4047851562499999 Q 5.5810546875 0.3989257812499999 5.5615234375 0.3989257812499999 M 5.525390625 0.2739257812499999 Q 5.5908203125 0.2739257812499999 5.643310546875 0.2934570312499999 Q 5.69580078125 0.3129882812499999 5.732666015625 0.3471679687499999 Q 5.76953125 0.3813476562499999 5.789306640625 0.4274902343749999 Q 5.80908203125 0.4736328124999999 5.80908203125 0.5268554687499999 Q 5.80908203125 0.5488281249999999 5.802978515625 0.5610351562499999 Q 5.796875 0.5732421874999999 5.78564453125 0.5791015624999999 Q 5.7744140625 0.5849609374999999 5.7578125 0.5864257812499999 Q 5.7412109375 0.5878906249999999 5.72021484375 0.5878906249999999 L 5.4853515625 0.5878906249999999 Q 5.4853515625 0.6416015624999999 5.496337890625 0.6750488281249999 Q 5.50732421875 0.7084960937499999 5.52685546875 0.7270507812499999 Q 5.54638671875 0.7456054687499999 5.57373046875 0.7521972656249999 Q 5.60107421875 0.7587890624999999 5.63427734375 0.7587890624999999 Q 5.65185546875 0.7587890624999999 5.670654296875 0.7553710937499999 Q 5.689453125 0.7519531249999999 5.706787109375 0.7465820312499999 Q 5.72412109375 0.7412109374999999 5.73876953125 0.7353515624999999 Q 5.75341796875 0.7294921874999999 5.76318359375 0.7241210937499999 Q 5.77099609375 0.7197265624999999 5.7783203125 0.7197265624999999 Q 5.78955078125 0.7197265624999999 5.7958984375 0.7292480468749999 Q 5.80224609375 0.7387695312499999 5.80224609375 0.7504882812499999 Q 5.80224609375 0.7543945312499999 5.8017578125 0.7578124999999999 Q 5.80126953125 0.7612304687499999 5.7998046875 0.7646484374999999 Q 5.78564453125 0.8007812499999999 5.76123046875 0.8315429687499999 Q 5.73681640625 0.8623046874999999 5.701904296875 0.8850097656249999 Q 5.6669921875 0.9077148437499999 5.62109375 0.9204101562499999 Q 5.5751953125 0.9331054687499999 5.51806640625 0.9331054687499999 Q 5.46337890625 0.9331054687499999 5.418212890625 0.9201660156249999 Q 5.373046875 0.9072265624999999 5.336669921875 0.8840332031249999 Q 5.30029296875 0.8608398437499999 5.27294921875 0.8295898437499999 Q 5.24560546875 0.7983398437499999 5.2275390625 0.7614746093749999 Q 5.20947265625 0.7246093749999999 5.200439453125 0.6843261718749999 Q 5.19140625 0.6440429687499999 5.19140625 0.6030273437499999 Q 5.19140625 0.5615234374999999 5.20068359375 0.5207519531249999 Q 5.2099609375 0.4799804687499999 5.228515625 0.4433593749999999 Q 5.2470703125 0.4067382812499999 5.27490234375 0.3757324218749999 Q 5.302734375 0.3447265624999999 5.33984375 0.3220214843749999 Q 5.376953125 0.2993164062499999 5.42333984375 0.2866210937499999 Q 5.4697265625 0.2739257812499999 5.525390625 0.2739257812499999" fill="#102036" fill-rule="nonzero"></path></g><g><path d=" M 8.695715944524222 0.3378906249999999 Q 8.686438600774222 0.3208007812499999 8.675940553899222 0.3115234374999999 Q 8.665442507024222 0.3022460937499999 8.655188600774222 0.2971191406249999 Q 8.644934694524222 0.2919921874999999 8.635901491399222 0.2893066406249999 Q 8.626868288274222 0.2866210937499999 8.620032350774222 0.2834472656249999 Q 8.613196413274222 0.2802734374999999 8.609046022649222 0.2746582031249999 Q 8.604895632024222 0.2690429687499999 8.604895632024222 0.2578124999999999 Q 8.604895632024222 0.1972656249999999 8.667639772649222 0.1701660156249999 Q 8.730383913274222 0.1430664062499999 8.850012819524222 0.1430664062499999 Q 8.907630007024222 0.1430664062499999 8.952307741399222 0.1496582031249999 Q 8.996985475774222 0.1562499999999999 9.027503053899222 0.1701660156249999 Q 9.058020632024222 0.1840820312499999 9.073889772649222 0.2058105468749999 Q 9.089758913274222 0.2275390624999999 9.089758913274222 0.2578124999999999 Q 9.089758913274222 0.2680664062499999 9.084876100774222 0.2731933593749999 Q 9.079993288274222 0.2783203124999999 9.072669069524222 0.2812499999999999 Q 9.065344850774222 0.2841796874999999 9.056799928899222 0.2858886718749999 Q 9.048255007024222 0.2875976562499999 9.040930788274222 0.2910156249999999 Q 9.033606569524222 0.2944335937499999 9.028723757024222 0.3002929687499999 Q 9.023840944524222 0.3061523437499999 9.023840944524222 0.3173828124999999 Q 9.023840944524222 0.3232421874999999 9.025305788274222 0.3305664062499999 Q 9.026770632024222 0.3378906249999999 9.030676882024222 0.3476562499999999 L 9.095618288274222 0.5229492187499999 Q 9.100012819524222 0.5346679687499999 9.106116335149222 0.5432128906249999 Q 9.112219850774222 0.5517578124999999 9.119055788274222 0.5517578124999999 Q 9.124426882024222 0.5517578124999999 9.130530397649222 0.5441894531249999 Q 9.136633913274222 0.5366210937499999 9.142981569524222 0.5180664062499999 L 9.199622194524222 0.3476562499999999 Q 9.205481569524222 0.3300781249999999 9.205481569524222 0.3188476562499999 Q 9.205481569524222 0.3071289062499999 9.200354616399222 0.3007812499999999 Q 9.195227663274222 0.2944335937499999 9.187171022649222 0.2910156249999999 Q 9.179114382024222 0.2875976562499999 9.170081178899222 0.2858886718749999 Q 9.161047975774222 0.2841796874999999 9.152991335149222 0.2812499999999999 Q 9.144934694524222 0.2783203124999999 9.139807741399222 0.2731933593749999 Q 9.134680788274222 0.2680664062499999 9.134680788274222 0.2578124999999999 Q 9.134680788274222 0.2343749999999999 9.143958132024222 0.2136230468749999 Q 9.153235475774222 0.1928710937499999 9.171546022649222 0.1772460937499999 Q 9.189856569524222 0.1616210937499999 9.216956178899222 0.1523437499999999 Q 9.244055788274222 0.1430664062499999 9.279700319524222 0.1430664062499999 Q 9.315833132024222 0.1430664062499999 9.343176882024222 0.1523437499999999 Q 9.370520632024222 0.1616210937499999 9.388831178899222 0.1772460937499999 Q 9.407141725774222 0.1928710937499999 9.416419069524222 0.2136230468749999 Q 9.425696413274222 0.2343749999999999 9.425696413274222 0.2578124999999999 Q 9.425696413274222 0.2695312499999999 9.419837038274222 0.2749023437499999 Q 9.413977663274222 0.2802734374999999 9.404456178899222 0.2829589843749999 Q 9.394934694524222 0.2856445312499999 9.382727663274222 0.2883300781249999 Q 9.370520632024222 0.2910156249999999 9.358313600774222 0.2973632812499999 Q 9.346106569524222 0.3037109374999999 9.334631960149222 0.3159179687499999 Q 9.323157350774222 0.3281249999999999 9.314856569524222 0.3500976562499999 L 9.184485475774222 0.6967773437499999 Q 9.166419069524222 0.7446289062499999 9.152258913274222 0.7814941406249999 Q 9.138098757024222 0.8183593749999999 9.125647585149222 0.8459472656249999 Q 9.113196413274222 0.8735351562499999 9.101721803899222 0.8920898437499999 Q 9.090247194524222 0.9106445312499999 9.077796022649222 0.9221191406249999 Q 9.065344850774222 0.9335937499999999 9.050696413274222 0.9387207031249999 Q 9.036047975774222 0.9438476562499999 9.017981569524222 0.9438476562499999 Q 8.994544069524222 0.9438476562499999 8.974524538274222 0.9301757812499999 Q 8.954505007024222 0.9165039062499999 8.933264772649222 0.8837890624999999 Q 8.912024538274222 0.8510742187499999 8.887366335149222 0.7961425781249999 Q 8.862708132024222 0.7412109374999999 8.830969850774222 0.6586914062499999 L 8.758704225774222 0.4726562499999999 L 8.673743288274222 0.6962890624999999 Q 8.646399538274222 0.7680664062499999 8.627356569524222 0.8156738281249999 Q 8.608313600774222 0.8632812499999999 8.590735475774222 0.8918457031249999 Q 8.573157350774222 0.9204101562499999 8.553870241399222 0.9321289062499999 Q 8.534583132024222 0.9438476562499999 8.506751100774222 0.9438476562499999 Q 8.483313600774222 0.9438476562499999 8.465247194524222 0.9294433593749999 Q 8.447180788274222 0.9150390624999999 8.427405397649222 0.8818359374999999 Q 8.407630007024222 0.8486328124999999 8.382239382024222 0.7939453124999999 Q 8.356848757024222 0.7392578124999999 8.319739382024222 0.6586914062499999 L 8.176672975774222 0.3500976562499999 Q 8.166907350774222 0.3295898437499999 8.155921022649222 0.3178710937499999 Q 8.144934694524222 0.3061523437499999 8.134192507024222 0.2998046874999999 Q 8.123450319524222 0.2934570312499999 8.113440553899222 0.2905273437499999 Q 8.103430788274222 0.2875976562499999 8.095862428899222 0.2841796874999999 Q 8.088294069524222 0.2807617187499999 8.083655397649222 0.2751464843749999 Q 8.079016725774222 0.2695312499999999 8.079016725774222 0.2578124999999999 Q 8.079016725774222 0.1972656249999999 8.141760866399222 0.1701660156249999 Q 8.204505007024222 0.1430664062499999 8.323645632024222 0.1430664062499999 Q 8.381262819524222 0.1430664062499999 8.426184694524222 0.1496582031249999 Q 8.471106569524222 0.1562499999999999 8.501624147649222 0.1701660156249999 Q 8.532141725774222 0.1840820312499999 8.548010866399222 0.2058105468749999 Q 8.563880007024222 0.2275390624999999 8.563880007024222 0.2578124999999999 Q 8.563880007024222 0.2675781249999999 8.558753053899222 0.2729492187499999 Q 8.553626100774222 0.2783203124999999 8.546301882024222 0.2814941406249999 Q 8.538977663274222 0.2846679687499999 8.529944460149222 0.2868652343749999 Q 8.520911257024222 0.2890624999999999 8.513587038274222 0.2922363281249999 Q 8.506262819524222 0.2954101562499999 8.501135866399222 0.3010253906249999 Q 8.496008913274222 0.3066406249999999 8.496008913274222 0.3164062499999999 Q 8.496008913274222 0.3222656249999999 8.497962038274222 0.3300781249999999 Q 8.499915163274222 0.3378906249999999 8.504797975774222 0.3476562499999999 L 8.584876100774222 0.5229492187499999 Q 8.590247194524222 0.5341796874999999 8.595618288274222 0.5427246093749999 Q 8.600989382024222 0.5512695312499999 8.607825319524222 0.5512695312499999 Q 8.613196413274222 0.5512695312499999 8.619055788274222 0.5439453124999999 Q 8.624915163274222 0.5366210937499999 8.631751100774222 0.5180664062499999 L 8.695715944524222 0.3378906249999999 M 9.747962038274222 0.3989257812499999 Q 9.732337038274222 0.3989257812499999 9.718665163274222 0.4060058593749999 Q 9.704993288274222 0.4130859374999999 9.694983522649222 0.4277343749999999 Q 9.684973757024222 0.4423828124999999 9.679358522649222 0.4650878906249999 Q 9.673743288274222 0.4877929687499999 9.673743288274222 0.5190429687499999 L 9.829505007024222 0.5190429687499999 Q 9.829505007024222 0.4848632812499999 9.824133913274222 0.4616699218749999 Q 9.818762819524222 0.4384765624999999 9.808508913274222 0.4245605468749999 Q 9.798255007024222 0.4106445312499999 9.782874147649222 0.4047851562499999 Q 9.767493288274222 0.3989257812499999 9.747962038274222 0.3989257812499999 M 9.711829225774222 0.2739257812499999 Q 9.777258913274222 0.2739257812499999 9.829749147649222 0.2934570312499999 Q 9.882239382024222 0.3129882812499999 9.919104616399222 0.3471679687499999 Q 9.955969850774222 0.3813476562499999 9.975745241399222 0.4274902343749999 Q 9.995520632024222 0.4736328124999999 9.995520632024222 0.5268554687499999 Q 9.995520632024222 0.5488281249999999 9.989417116399222 0.5610351562499999 Q 9.983313600774222 0.5732421874999999 9.972083132024222 0.5791015624999999 Q 9.960852663274222 0.5849609374999999 9.944251100774222 0.5864257812499999 Q 9.927649538274222 0.5878906249999999 9.906653444524222 0.5878906249999999 L 9.671790163274222 0.5878906249999999 Q 9.671790163274222 0.6416015624999999 9.682776491399222 0.6750488281249999 Q 9.693762819524222 0.7084960937499999 9.713294069524222 0.7270507812499999 Q 9.732825319524222 0.7456054687499999 9.760169069524222 0.7521972656249999 Q 9.787512819524222 0.7587890624999999 9.820715944524222 0.7587890624999999 Q 9.838294069524222 0.7587890624999999 9.857092897649222 0.7553710937499999 Q 9.875891725774222 0.7519531249999999 9.893225710149222 0.7465820312499999 Q 9.910559694524222 0.7412109374999999 9.925208132024222 0.7353515624999999 Q 9.939856569524222 0.7294921874999999 9.949622194524222 0.7241210937499999 Q 9.957434694524222 0.7197265624999999 9.964758913274222 0.7197265624999999 Q 9.975989382024222 0.7197265624999999 9.982337038274222 0.7292480468749999 Q 9.988684694524222 0.7387695312499999 9.988684694524222 0.7504882812499999 Q 9.988684694524222 0.7543945312499999 9.988196413274222 0.7578124999999999 Q 9.987708132024222 0.7612304687499999 9.986243288274222 0.7646484374999999 Q 9.972083132024222 0.8007812499999999 9.947669069524222 0.8315429687499999 Q 9.923255007024222 0.8623046874999999 9.888342897649222 0.8850097656249999 Q 9.853430788274222 0.9077148437499999 9.807532350774222 0.9204101562499999 Q 9.761633913274222 0.9331054687499999 9.704505007024222 0.9331054687499999 Q 9.649817507024222 0.9331054687499999 9.604651491399222 0.9201660156249999 Q 9.559485475774222 0.9072265624999999 9.523108522649222 0.8840332031249999 Q 9.486731569524222 0.8608398437499999 9.459387819524222 0.8295898437499999 Q 9.432044069524222 0.7983398437499999 9.413977663274222 0.7614746093749999 Q 9.395911257024222 0.7246093749999999 9.386878053899222 0.6843261718749999 Q 9.377844850774222 0.6440429687499999 9.377844850774222 0.6030273437499999 Q 9.377844850774222 0.5615234374999999 9.387122194524222 0.5207519531249999 Q 9.396399538274222 0.4799804687499999 9.414954225774222 0.4433593749999999 Q 9.433508913274222 0.4067382812499999 9.461340944524222 0.3757324218749999 Q 9.489172975774222 0.3447265624999999 9.526282350774222 0.3220214843749999 Q 9.563391725774222 0.2993164062499999 9.609778444524222 0.2866210937499999 Q 9.656165163274222 0.2739257812499999 9.711829225774222 0.2739257812499999 M 10.404212038274222 0.3369140624999999 Q 10.417883913274222 0.3256835937499999 10.436194460149222 0.3144531249999999 Q 10.454505007024222 0.3032226562499999 10.478430788274222 0.2941894531249999 Q 10.502356569524222 0.2851562499999999 10.532630007024222 0.2795410156249999 Q 10.562903444524222 0.2739257812499999 10.600501100774222 0.2739257812499999 Q 10.649817507024222 0.2739257812499999 10.687659303899222 0.2880859374999999 Q 10.725501100774222 0.3022460937499999 10.753577272649222 0.3264160156249999 Q 10.781653444524222 0.3505859374999999 10.800696413274222 0.3833007812499999 Q 10.819739382024222 0.4160156249999999 10.831213991399222 0.4531249999999999 Q 10.842688600774222 0.4902343749999999 10.847571413274222 0.5297851562499999 Q 10.852454225774222 0.5693359374999999 10.852454225774222 0.6079101562499999 Q 10.852454225774222 0.6489257812499999 10.845862428899222 0.6889648437499999 Q 10.839270632024222 0.7290039062499999 10.825842897649222 0.7651367187499999 Q 10.812415163274222 0.8012695312499999 10.791419069524222 0.8320312499999999 Q 10.770422975774222 0.8627929687499999 10.741614382024222 0.8852539062499999 Q 10.712805788274222 0.9077148437499999 10.675940553899222 0.9204101562499999 Q 10.639075319524222 0.9331054687499999 10.593176882024222 0.9331054687499999 Q 10.550696413274222 0.9331054687499999 10.517737428899222 0.9260253906249999 Q 10.484778444524222 0.9189453124999999 10.459631960149222 0.9082031249999999 Q 10.434485475774222 0.8974609374999999 10.416663210149222 0.8845214843749999 Q 10.398840944524222 0.8715820312499999 10.387122194524222 0.8598632812499999 Q 10.380286257024222 0.8740234374999999 10.369544069524222 0.8854980468749999 Q 10.358801882024222 0.8969726562499999 10.342688600774222 0.9047851562499999 Q 10.326575319524222 0.9125976562499999 10.303870241399222 0.9167480468749999 Q 10.281165163274222 0.9208984374999999 10.251380007024222 0.9208984374999999 Q 10.198645632024222 0.9208984374999999 10.158118288274222 0.9150390624999999 Q 10.117590944524222 0.9091796874999999 10.089758913274222 0.8962402343749999 Q 10.061926882024222 0.8833007812499999 10.047522585149222 0.8635253906249999 Q 10.033118288274222 0.8437499999999999 10.033118288274222 0.8159179687499999 Q 10.033118288274222 0.8051757812499999 10.038489382024222 0.8005371093749999 Q 10.043860475774222 0.7958984374999999 10.051672975774222 0.7934570312499999 Q 10.059485475774222 0.7910156249999999 10.068762819524222 0.7890624999999999 Q 10.078040163274222 0.7871093749999999 10.085852663274222 0.7814941406249999 Q 10.093665163274222 0.7758789062499999 10.099036257024222 0.7653808593749999 Q 10.104407350774222 0.7548828124999999 10.104407350774222 0.7348632812499999 L 10.104407350774222 0.1860351562499999 Q 10.104407350774222 0.1660156249999999 10.099036257024222 0.1555175781249999 Q 10.093665163274222 0.1450195312499999 10.085852663274222 0.1394042968749999 Q 10.078040163274222 0.1337890624999999 10.068762819524222 0.1318359374999999 Q 10.059485475774222 0.1298828124999999 10.051672975774222 0.1274414062499999 Q 10.043860475774222 0.12499999999999989 10.038489382024222 0.12036132812499989 Q 10.033118288274222 0.11572265624999989 10.033118288274222 0.10498046874999989 Q 10.033118288274222 0.07714843749999989 10.047522585149222 0.05737304687499989 Q 10.061926882024222 0.03759765624999989 10.089758913274222 0.02465820312499989 Q 10.117590944524222 0.011718749999999889 10.158118288274222 0.005859374999999889 Q 10.198645632024222 -1.1102230246251565e-16 10.251380007024222 -1.1102230246251565e-16 Q 10.304114382024222 -1.1102230246251565e-16 10.334631960149222 0.005371093749999889 Q 10.365149538274222 0.010742187499999889 10.380774538274222 0.02368164062499989 Q 10.396399538274222 0.03662109374999989 10.400794069524222 0.05859374999999989 Q 10.405188600774222 0.08056640624999989 10.405188600774222 0.11376953124999989 L 10.404212038274222 0.3369140624999999 M 10.462317507024222 0.3989257812499999 Q 10.445227663274222 0.3989257812499999 10.430335085149222 0.4047851562499999 Q 10.415442507024222 0.4106445312499999 10.403235475774222 0.4189453124999999 L 10.403235475774222 0.7329101562499999 Q 10.403235475774222 0.7470703124999999 10.403235475774222 0.7607421874999999 Q 10.403235475774222 0.7744140624999999 10.402258913274222 0.7871093749999999 Q 10.415930788274222 0.7954101562499999 10.433020632024222 0.8022460937499999 Q 10.450110475774222 0.8090820312499999 10.471106569524222 0.8090820312499999 Q 10.498450319524222 0.8090820312499999 10.513342897649222 0.7995605468749999 Q 10.528235475774222 0.7900390624999999 10.535071413274222 0.7670898437499999 Q 10.541907350774222 0.7441406249999999 10.543128053899222 0.7058105468749999 Q 10.544348757024222 0.6674804687499999 10.544348757024222 0.6098632812499999 Q 10.544348757024222 0.5493164062499999 10.539954225774222 0.5085449218749999 Q 10.535559694524222 0.4677734374999999 10.525794069524222 0.4436035156249999 Q 10.516028444524222 0.4194335937499999 10.500403444524222 0.4091796874999999 Q 10.484778444524222 0.3989257812499999 10.462317507024222 0.3989257812499999" fill="#102036" fill-rule="nonzero"></path></g><g><path d=" M 4.246322598998222 2.159309895833333 Q 4.269244691012111 2.1240451388888886 4.269244691012111 2.081184895833333 Q 4.269244691012111 2.0383246527777774 4.257987095526 2.010655381944444 Q 4.246729500039889 1.982986111111111 4.2270626163593334 1.965218098958333 Q 4.207395732678778 1.9474500868055553 4.1778275903176665 1.9363281249999997 Q 4.1241166528176665 1.9157118055555553 4.0378536319843334 1.9157118055555553 Q 3.9990623993454446 1.9157118055555553 3.9990623993454446 1.921950954861111 L 3.9990623993454446 2.224956597222222 Q 4.041922642401 2.229568142361111 4.092242737887111 2.229568142361111 Q 4.142562833373222 2.229568142361111 4.182981670178778 2.2120713975694444 Q 4.2234005069843334 2.1945746527777774 4.246322598998222 2.159309895833333 M 4.314410706637111 1.9926161024305553 Q 4.329737312539889 2.0228624131944444 4.329737312539889 2.060975477430555 Q 4.329737312539889 2.0990885416666663 4.317937182331556 2.1320475260416663 Q 4.306137052123222 2.1650065104166663 4.285113831637111 2.1890136718749997 Q 4.264090611151 2.213020833333333 4.235065003512111 2.229839409722222 Q 4.177285055595444 2.263747829861111 4.098074986151 2.263747829861111 Q 4.070134447956556 2.2632052951388886 4.000690003512111 2.2632052951388886 Q 3.9312455590676665 2.2632052951388886 3.9209373993454446 2.2610351562499997 Q 3.900049812539889 2.2556098090277774 3.8992360104565558 2.2387912326388886 Q 3.8992360104565558 2.2292968749999997 3.917682191012111 2.2268554687499997 Q 3.9263627465676665 2.225770399305555 3.929346687539889 2.2244140624999997 Q 3.9399261146232223 2.220073784722222 3.9399261146232223 2.2048828124999997 L 3.9399261146232223 1.9406684027777774 Q 3.9399261146232223 1.920052083333333 3.919581062539889 1.9184244791666663 Q 3.902491218789889 1.917068142361111 3.9008636146232223 1.9132703993055553 Q 3.8992360104565558 1.9094726562499997 3.8992360104565558 1.9032335069444442 Q 3.8992360104565558 1.8969943576388886 3.9033050208732223 1.891975911458333 Q 3.907374031289889 1.8869574652777774 3.9179534583732223 1.8850585937499997 Q 3.9315168264287776 1.8826171874999997 3.968951722262111 1.8826171874999997 L 4.052773336845444 1.8826171874999997 Q 4.196273770873222 1.8826171874999997 4.2730424340676665 1.9422960069444442 Q 4.2990841007343334 1.9623697916666663 4.314410706637111 1.9926161024305553 M 4.354151375039889 2.1359809027777774 Q 4.354151375039889 2.0749457465277774 4.391993171914889 2.0368326822916663 Q 4.429834968789889 1.9987196180555553 4.488428718789889 1.9987196180555553 Q 4.534815437539889 1.9987196180555553 4.566689352470444 2.028694661458333 Q 4.598563267401 2.058669704861111 4.598563267401 2.1039713541666663 Q 4.598563267401 2.1259440104166663 4.563841045178778 2.1259440104166663 L 4.406777243095444 2.1259440104166663 Q 4.4073197778176665 2.1698893229166663 4.435260316012111 2.1999999999999997 Q 4.463200854206556 2.230110677083333 4.505789829901 2.230110677083333 Q 4.534001635456556 2.230110677083333 4.560585836845444 2.213563368055555 Q 4.574691739623223 2.2048828124999997 4.5786251163593334 2.2048828124999997 Q 4.582558493095444 2.2048828124999997 4.587576939276 2.208816189236111 Q 4.592595385456556 2.212749565972222 4.592595385456556 2.218446180555555 Q 4.592595385456556 2.2333658854166663 4.573471036498223 2.245979817708333 Q 4.554346687539889 2.2585937499999997 4.531288961845444 2.2646972656249997 Q 4.508231236151 2.2708007812499997 4.490870125039889 2.2708007812499997 Q 4.4292924340676665 2.2708007812499997 4.391721904553778 2.2339084201388886 Q 4.354151375039889 2.1970160590277774 4.354151375039889 2.1359809027777774 M 4.548650072956556 2.0974609374999997 Q 4.5481075382343334 2.066265190972222 4.532374031289889 2.046733940972222 Q 4.516640524345444 2.027202690972222 4.486394213581556 2.027202690972222 Q 4.4561479028176665 2.027202690972222 4.433497078164889 2.048904079861111 Q 4.410846253512111 2.0706054687499997 4.409489916706556 2.0985460069444444 L 4.472966479206556 2.0985460069444444 Q 4.515284187539889 2.0985460069444444 4.548650072956556 2.0974609374999997 M 4.7539994653176665 2.2387912326388886 Q 4.8150346215676665 2.2387912326388886 4.8150346215676665 2.201356336805555 Q 4.8150346215676665 2.1731445312499997 4.759967347262111 2.1571397569444444 Q 4.749659187539889 2.154155815972222 4.735010750039889 2.150086805555555 Q 4.7076127465676665 2.142762586805555 4.698118388928777 2.1389648437499997 Q 4.6742468611509995 2.129741753472222 4.657699552123222 2.1121093749999997 Q 4.641152243095444 2.0944769965277774 4.641152243095444 2.0703342013888886 Q 4.641152243095444 2.039138454861111 4.670856019137111 2.0185221354166663 Q 4.700559795178777 1.997905815972222 4.7426062361509995 1.997905815972222 Q 4.783567607678777 1.997905815972222 4.819374899345444 2.012825520833333 Q 4.8370072778176665 2.020149739583333 4.8479936059426665 2.0331705729166663 Q 4.8589799340676665 2.0461914062499997 4.8589799340676665 2.0602973090277774 Q 4.8589799340676665 2.074403211805555 4.847722338581555 2.0828124999999997 Q 4.836464743095444 2.0912217881944444 4.8243933455259995 2.0912217881944444 Q 4.812321947956555 2.0912217881944444 4.808388571220444 2.0889160156249997 Q 4.8044551944843334 2.086610243055555 4.8044551944843334 2.078200954861111 Q 4.8044551944843334 2.0258463541666663 4.748845385456555 2.0258463541666663 Q 4.725787659762111 2.0258463541666663 4.708697816012111 2.036018880208333 Q 4.691607972262111 2.0461914062499997 4.691607972262111 2.0624674479166663 Q 4.691607972262111 2.087966579861111 4.744776375039889 2.102886284722222 Q 4.7531856632343334 2.105056423611111 4.765121427123222 2.1081759982638886 Q 4.777057191012111 2.1112955729166663 4.787094083373222 2.1144151475694444 Q 4.7971309757343334 2.117534722222222 4.8081173038593334 2.1217393663194444 Q 4.8191036319843334 2.1259440104166663 4.8313106632343334 2.1327256944444444 Q 4.8435176944843334 2.139507378472222 4.851113180595444 2.1473741319444444 Q 4.8687455590676665 2.1652777777777774 4.8687455590676665 2.1906412760416663 Q 4.8687455590676665 2.216004774305555 4.8516557153176665 2.234450954861111 Q 4.817747295178777 2.2705295138888886 4.7539994653176665 2.2705295138888886 Q 4.7124955590676665 2.2705295138888886 4.6775020694843334 2.256966145833333 Q 4.6595984236509995 2.2499131944444444 4.648747729206555 2.237434895833333 Q 4.637897034762111 2.224956597222222 4.637897034762111 2.2108506944444444 Q 4.637897034762111 2.1967447916666663 4.646848857678777 2.1890136718749997 Q 4.655800680595444 2.181282552083333 4.667193909762111 2.181282552083333 Q 4.678587138928777 2.181282552083333 4.686589526081555 2.188335503472222 Q 4.6945919132343334 2.195388454861111 4.6945919132343334 2.2058322482638886 Q 4.6945919132343334 2.2162760416666663 4.692693041706555 2.228211805555555 Q 4.7214473819843334 2.2387912326388886 4.7539994653176665 2.2387912326388886 M 4.946056756984333 1.9230360243055553 Q 4.946056756984333 1.9111002604166663 4.957585619831555 1.9006564670138886 Q 4.969114482678777 1.890212673611111 4.982813484414889 1.890212673611111 Q 4.9965124861509995 1.890212673611111 5.009397685803777 1.8986219618055553 Q 5.022282885456555 1.9070312499999997 5.022282885456555 1.9208658854166663 Q 5.022282885456555 1.934700520833333 5.011432191012111 1.9440592447916663 Q 5.0005814965676665 1.9534179687499997 4.984847989623222 1.9534179687499997 Q 4.969114482678777 1.9534179687499997 4.957585619831555 1.9447374131944442 Q 4.946056756984333 1.9360568576388886 4.946056756984333 1.9230360243055553 M 5.002751635456555 2.2634765624999997 L 4.9794226424009995 2.263747829861111 Q 4.943886618095444 2.263747829861111 4.9354773299009995 2.2528971354166663 Q 4.931679586845444 2.2480143229166663 4.931679586845444 2.241097005208333 Q 4.931679586845444 2.2341796874999997 4.9371049340676665 2.2314670138888886 Q 4.942530281289889 2.2287543402777774 4.949176331637111 2.2284830729166663 Q 4.955822381984333 2.228211805555555 4.961247729206555 2.2242784288194444 Q 4.966673076428777 2.220345052083333 4.966673076428777 2.2116644965277774 L 4.966673076428777 2.0657226562499997 Q 4.966673076428777 2.0410373263888886 4.947413093789889 2.039138454861111 Q 4.945514222262111 2.0388671874999997 4.942530281289889 2.0385959201388886 Q 4.9395463403176665 2.0383246527777774 4.938190003512111 2.038189019097222 Q 4.936833666706555 2.0380533854166663 4.934799161498222 2.0376464843749997 Q 4.932764656289889 2.037239583333333 4.9318152205259995 2.036697048611111 Q 4.930865784762111 2.0361545138888886 4.9297807153176665 2.035340711805555 Q 4.927881843789889 2.0339843749999997 4.927881843789889 2.0276095920138886 Q 4.927881843789889 2.0212348090277774 4.936019864623222 2.0144531249999997 Q 4.951482104206555 2.0019748263888886 4.977252503512111 2.0019748263888886 Q 5.001124031289889 2.0019748263888886 5.005328675387111 2.0038736979166663 Q 5.009533319484333 2.005772569444444 5.012517260456555 2.007942708333333 Q 5.018213875039889 2.0117404513888886 5.018213875039889 2.022319878472222 L 5.018213875039889 2.2116644965277774 Q 5.018213875039889 2.227398003472222 5.035710619831555 2.228347439236111 Q 5.053207364623222 2.2292968749999997 5.053207364623222 2.242317708333333 Q 5.053207364623222 2.2572374131944444 5.036931322956555 2.2607638888888886 Q 5.024453024345444 2.2634765624999997 5.002751635456555 2.2634765624999997 M 5.346447381984333 2.0947482638888886 Q 5.346447381984333 2.1194335937499997 5.3277299340676665 2.1381510416666663 Q 5.2911088403176665 2.1747721354166663 5.223292000039889 2.1747721354166663 Q 5.209999899345444 2.1747721354166663 5.195080194484333 2.172195095486111 Q 5.180160489623222 2.169618055555555 5.1763627465676665 2.169075520833333 L 5.1763627465676665 2.168804253472222 Q 5.155746427123222 2.186165364583333 5.155746427123222 2.1991861979166663 Q 5.155746427123222 2.211121961805555 5.1674109236509995 2.215190972222222 Q 5.183958232678777 2.2211588541666663 5.213526375039889 2.2217013888888886 Q 5.2430945174009995 2.222243923611111 5.259641826428777 2.2226508246527774 Q 5.276189135456555 2.2230577256944444 5.295449118095444 2.2244140624999997 Q 5.314709100734333 2.225770399305555 5.329357538234333 2.2297037760416663 Q 5.344005975734333 2.2336371527777774 5.356755541706555 2.2401475694444444 Q 5.382797208373222 2.2537109374999997 5.382797208373222 2.286263020833333 Q 5.382797208373222 2.310677083333333 5.3700476424009995 2.3293945312499997 Q 5.357298076428777 2.3481119791666663 5.3358679549009995 2.358962673611111 Q 5.293278979206555 2.380935329861111 5.234413961845444 2.380935329861111 Q 5.183415697956555 2.380935329861111 5.1446244653176665 2.366829427083333 Q 5.123736878512111 2.359233940972222 5.111529847262111 2.3444498697916663 Q 5.099322816012111 2.329665798611111 5.099322816012111 2.3090494791666663 Q 5.099322816012111 2.2705295138888886 5.1381140486509995 2.249641927083333 Q 5.127805888928777 2.239605034722222 5.124143779553777 2.230653211805555 Q 5.120481670178777 2.2217013888888886 5.120481670178777 2.2097656249999997 Q 5.120481670178777 2.197829861111111 5.1226518090676665 2.1913194444444444 Q 5.124821947956555 2.1848090277777774 5.129433493095444 2.179383680555555 Q 5.135401375039889 2.1723307291666663 5.151677416706555 2.1601236979166663 Q 5.126178284762111 2.1473741319444444 5.112750550387111 2.1315049913194444 Q 5.099322816012111 2.1156358506944444 5.099322816012111 2.0913574218749997 Q 5.099322816012111 2.067078993055555 5.110580411498222 2.049175347222222 Q 5.121838006984333 2.0312717013888886 5.140284187539889 2.020692274305555 Q 5.177719083373222 1.9992621527777774 5.223834534762111 1.9992621527777774 Q 5.236855368095444 1.9992621527777774 5.272527026081555 2.0059082031249997 Q 5.3081986840676665 2.012554253472222 5.312538961845444 2.012554253472222 Q 5.336681756984333 2.012554253472222 5.3407507674009995 1.988411458333333 Q 5.375472989623222 1.988411458333333 5.375472989623222 2.0160807291666663 Q 5.375472989623222 2.029372829861111 5.367470602470444 2.0371039496527774 Q 5.3594682153176665 2.0448350694444444 5.349024421914889 2.0448350694444444 Q 5.338580628512111 2.0448350694444444 5.326644864623222 2.0437499999999997 Q 5.334511618095444 2.0505316840277774 5.340479500039889 2.0649088541666663 Q 5.346447381984333 2.079286024305555 5.346447381984333 2.0947482638888886 M 5.1751420434426665 2.039680989583333 Q 5.154661357678777 2.056770833333333 5.154661357678777 2.0847113715277774 Q 5.154661357678777 2.112651909722222 5.175684578164889 2.130555555555555 Q 5.1967077986509995 2.1484592013888886 5.227089743095444 2.1484592013888886 Q 5.257471687539889 2.1484592013888886 5.276324769137111 2.131776258680555 Q 5.295177850734333 2.115093315972222 5.295177850734333 2.088237847222222 Q 5.295177850734333 2.061382378472222 5.274697164970444 2.0419867621527774 Q 5.254216479206555 2.022591145833333 5.224919604206555 2.022591145833333 Q 5.195622729206555 2.022591145833333 5.1751420434426665 2.039680989583333 M 5.229531149345444 2.349197048611111 Q 5.271306322956555 2.349197048611111 5.293007711845444 2.3403808593749997 Q 5.314709100734333 2.3315646701388886 5.323118388928777 2.3200358072916663 Q 5.331527677123222 2.3085069444444444 5.331527677123222 2.2925021701388886 Q 5.331527677123222 2.259136284722222 5.201861878512111 2.259136284722222 Q 5.165240784762111 2.259136284722222 5.165240784762111 2.2583224826388886 Q 5.1446244653176665 2.2792100694444444 5.1446244653176665 2.298198784722222 Q 5.1446244653176665 2.349197048611111 5.229531149345444 2.349197048611111 M 5.484522468789888 2.2634765624999997 L 5.461193475734333 2.263747829861111 Q 5.425657451428777 2.263747829861111 5.417248163234333 2.2528971354166663 Q 5.413450420178777 2.2480143229166663 5.413450420178777 2.241097005208333 Q 5.413450420178777 2.2341796874999997 5.4188757674009995 2.2314670138888886 Q 5.424301114623222 2.2287543402777774 5.430947164970444 2.2284830729166663 Q 5.437593215317666 2.228211805555555 5.443018562539888 2.2242784288194444 Q 5.44844390976211 2.220345052083333 5.44844390976211 2.2116644965277774 L 5.44844390976211 2.056770833333333 Q 5.44844390976211 2.0410373263888886 5.42891265976211 2.037782118055555 Q 5.415349291706555 2.0356119791666663 5.412500984414888 2.033034939236111 Q 5.409652677123222 2.030457899305555 5.409652677123222 2.023811848958333 Q 5.409652677123222 2.017165798611111 5.41914703476211 2.0117404513888886 Q 5.435151809067666 2.0019748263888886 5.45943023788711 2.0019748263888886 Q 5.483708666706555 2.0019748263888886 5.490625984414888 2.008892144097222 Q 5.497543302123222 2.015809461805555 5.497543302123222 2.039680989583333 Q 5.534706930595444 1.997634548611111 5.59981109726211 1.997634548611111 Q 5.652708232678777 1.997634548611111 5.674816522609333 2.0265245225694444 Q 5.696924812539888 2.0554144965277774 5.696924812539888 2.1140082465277774 L 5.696924812539888 2.2116644965277774 Q 5.696924812539888 2.227398003472222 5.714421557331555 2.228347439236111 Q 5.731918302123222 2.2292968749999997 5.731918302123222 2.242317708333333 Q 5.731918302123222 2.256966145833333 5.715099725734333 2.2607638888888886 Q 5.702621427123222 2.2634765624999997 5.680648770873222 2.2634765624999997 L 5.657319777817666 2.263747829861111 Q 5.62178375351211 2.263747829861111 5.613374465317666 2.2528971354166663 Q 5.60957672226211 2.2480143229166663 5.60957672226211 2.241097005208333 Q 5.60957672226211 2.2341796874999997 5.615002069484333 2.2314670138888886 Q 5.620427416706555 2.2287543402777774 5.627073467053777 2.2284830729166663 Q 5.6337195174009995 2.228211805555555 5.639144864623222 2.2242784288194444 Q 5.644570211845444 2.220345052083333 5.644570211845444 2.2116644965277774 L 5.644570211845444 2.1327256944444444 Q 5.644570211845444 2.0822699652777774 5.632905715317666 2.058940972222222 Q 5.619884881984333 2.0326280381944444 5.580551114623222 2.0326280381944444 Q 5.533079326428777 2.0326280381944444 5.515989482678777 2.0578559027777774 Q 5.499984708373222 2.081727430555555 5.499984708373222 2.1340820312499997 L 5.499984708373222 2.2116644965277774 Q 5.499984708373222 2.227398003472222 5.517481453164888 2.228347439236111 Q 5.534978197956555 2.2292968749999997 5.534978197956555 2.242317708333333 Q 5.534978197956555 2.2572374131944444 5.518430888928777 2.2607638888888886 Q 5.506495125039888 2.2634765624999997 5.484522468789888 2.2634765624999997 M 6.1968705590676665 2.1669053819444444 Q 6.215859274345444 2.1669053819444444 6.215859274345444 2.193218315972222 Q 6.215859274345444 2.2195312499999997 6.196599291706555 2.242046440972222 Q 6.1773393090676665 2.2645616319444444 6.151840177123222 2.2645616319444444 L 5.950831062539889 2.2634765624999997 Q 5.908513354206555 2.2634765624999997 5.8973913924009995 2.2607638888888886 Q 5.874333666706555 2.2553385416666663 5.874333666706555 2.2406901041666663 Q 5.874333666706555 2.234993489583333 5.8778601424009995 2.233094618055555 Q 5.881386618095444 2.2311957465277774 5.88301422226211 2.2305175781249997 Q 5.884641826428777 2.229839409722222 5.893322381984333 2.227669270833333 Q 5.913396166706555 2.2217013888888886 5.918007711845444 2.210036892361111 Q 5.921534187539889 2.1948459201388886 5.921534187539889 2.178841145833333 L 5.921534187539889 1.9669813368055553 Q 5.921534187539889 1.9314453124999997 5.908513354206555 1.924663628472222 Q 5.902002937539889 1.9211371527777774 5.8803015486509995 1.9140842013888886 Q 5.874333666706555 1.912185329861111 5.874333666706555 1.905403645833333 Q 5.874333666706555 1.890755208333333 5.895492520873222 1.885872395833333 Q 5.9087846215676665 1.8826171874999997 5.951237963581555 1.8826171874999997 Q 5.993691305595444 1.8826171874999997 6.0048132674009995 1.885329861111111 Q 6.028142260456555 1.890755208333333 6.028142260456555 1.905132378472222 Q 6.028142260456555 1.9113715277777774 6.023801982678777 1.9132703993055553 Q 6.0194617049009995 1.915169270833333 6.01851226913711 1.9155761718749997 Q 6.017562833373222 1.9159830729166663 6.014307625039889 1.9167968749999997 Q 6.011052416706555 1.917610677083333 6.00996734726211 1.9180175781249997 Q 6.0088822778176665 1.9184244791666663 6.005355802123222 1.9193739149305553 Q 6.001829326428777 1.9203233506944442 6.00020172226211 1.9208658854166663 Q 5.998574118095444 1.9214084201388886 5.996132711845444 1.922493489583333 Q 5.990978631984333 1.924663628472222 5.988537225734333 1.9281901041666663 Q 5.980941739623222 1.9374131944444442 5.980941739623222 1.9669813368055553 L 5.980941739623222 2.2181749131944444 Q 5.980941739623222 2.2303819444444444 6.006169604206555 2.2303819444444444 Q 6.061779413234333 2.2303819444444444 6.105046557331555 2.226177300347222 Q 6.148313701428777 2.2219726562499997 6.1537390486509995 2.218446180555555 Q 6.157536791706555 2.2141059027777774 6.163233406289889 2.2016276041666663 Q 6.168930020873222 2.189149305555555 6.169743822956555 2.1877929687499997 Q 6.181137052123222 2.1669053819444444 6.1968705590676665 2.1669053819444444 M 6.5687781111509995 2.1669053819444444 Q 6.587766826428777 2.1669053819444444 6.587766826428777 2.193218315972222 Q 6.587766826428777 2.2195312499999997 6.568506843789888 2.242046440972222 Q 6.5492468611509995 2.2645616319444444 6.523747729206555 2.2645616319444444 L 6.322738614623222 2.2634765624999997 Q 6.280420906289888 2.2634765624999997 6.269298944484333 2.2607638888888886 Q 6.246241218789888 2.2553385416666663 6.246241218789888 2.2406901041666663 Q 6.246241218789888 2.234993489583333 6.249767694484333 2.233094618055555 Q 6.253294170178777 2.2311957465277774 6.254921774345443 2.2305175781249997 Q 6.25654937851211 2.229839409722222 6.265229934067666 2.227669270833333 Q 6.285303718789888 2.2217013888888886 6.289915263928777 2.210036892361111 Q 6.293441739623222 2.1948459201388886 6.293441739623222 2.178841145833333 L 6.293441739623222 1.9669813368055553 Q 6.293441739623222 1.9314453124999997 6.280420906289888 1.924663628472222 Q 6.273910489623222 1.9211371527777774 6.252209100734333 1.9140842013888886 Q 6.246241218789888 1.912185329861111 6.246241218789888 1.905403645833333 Q 6.246241218789888 1.890755208333333 6.267400072956555 1.885872395833333 Q 6.2806921736509995 1.8826171874999997 6.323145515664888 1.8826171874999997 Q 6.365598857678777 1.8826171874999997 6.376720819484333 1.885329861111111 Q 6.400049812539888 1.890755208333333 6.400049812539888 1.905132378472222 Q 6.400049812539888 1.9113715277777774 6.39570953476211 1.9132703993055553 Q 6.391369256984333 1.915169270833333 6.390419821220443 1.9155761718749997 Q 6.389470385456555 1.9159830729166663 6.386215177123222 1.9167968749999997 Q 6.382959968789888 1.917610677083333 6.381874899345443 1.9180175781249997 Q 6.3807898299009995 1.9184244791666663 6.377263354206555 1.9193739149305553 Q 6.37373687851211 1.9203233506944442 6.372109274345443 1.9208658854166663 Q 6.370481670178777 1.9214084201388886 6.368040263928777 1.922493489583333 Q 6.362886184067666 1.924663628472222 6.360444777817666 1.9281901041666663 Q 6.352849291706555 1.9374131944444442 6.352849291706555 1.9669813368055553 L 6.352849291706555 2.2181749131944444 Q 6.352849291706555 2.2303819444444444 6.378077156289888 2.2303819444444444 Q 6.433686965317666 2.2303819444444444 6.476954109414888 2.226177300347222 Q 6.52022125351211 2.2219726562499997 6.525646600734333 2.218446180555555 Q 6.529444343789888 2.2141059027777774 6.535140958373222 2.2016276041666663 Q 6.540837572956555 2.189149305555555 6.541651375039888 2.1877929687499997 Q 6.553044604206555 2.1669053819444444 6.5687781111509995 2.1669053819444444 M 6.666976895873221 2.064095052083333 Q 6.666976895873221 2.100444878472222 6.680268996567666 2.131233723958333 Q 6.69356109726211 2.1620225694444444 6.716890090317666 2.183181423611111 Q 6.766260750039888 2.2279405381944444 6.843571947956555 2.2279405381944444 Q 6.920883145873221 2.2279405381944444 6.979748163234333 2.169075520833333 Q 6.986258579900999 2.1625651041666663 6.991277026081555 2.1625651041666663 Q 6.99629547226211 2.1625651041666663 7.000771383720443 2.166362847222222 Q 7.005247295178776 2.1701605902777774 7.005247295178776 2.1755859374999997 Q 7.005247295178776 2.181011284722222 7.002263354206555 2.1877929687499997 L 7.002534621567666 2.1877929687499997 Q 6.982189569484333 2.2236002604166663 6.934582147609333 2.2473361545138886 Q 6.886974725734333 2.271072048611111 6.837061531289888 2.271072048611111 Q 6.787148336845443 2.271072048611111 6.746186965317666 2.2583224826388886 Q 6.705225593789888 2.2455729166666663 6.673622946220443 2.2219726562499997 Q 6.642020298650999 2.198372395833333 6.623302850734333 2.1616156684027774 Q 6.604585402817666 2.124858940972222 6.604585402817666 2.0788791232638886 Q 6.604585402817666 2.032899305555555 6.622217781289888 1.9947862413194442 Q 6.63985015976211 1.956673177083333 6.670774638928776 1.931716579861111 Q 6.734251201428776 1.8801757812499997 6.83272125351211 1.8801757812499997 Q 6.885075854206555 1.8801757812499997 6.931733840317666 1.8964518229166663 Q 6.955605368095443 1.904861111111111 6.97066070663711 1.9204589843749997 Q 6.985716045178776 1.9360568576388886 6.985716045178776 1.956130642361111 Q 6.985716045178776 1.976204427083333 6.973237746567666 1.985970052083333 Q 6.960759447956555 1.995735677083333 6.943940871567666 1.995735677083333 Q 6.927122295178776 1.995735677083333 6.919255541706555 1.993023003472222 Q 6.916271600734333 1.9507052951388886 6.894841479206555 1.9300889756944442 Q 6.873411357678776 1.9094726562499997 6.83027984726211 1.9094726562499997 Q 6.756766392400999 1.9094726562499997 6.71187164413711 1.9521972656249997 Q 6.666976895873221 1.9949218749999997 6.666976895873221 2.064095052083333" fill="#3682ae" fill-rule="nonzero"></path></g></g><defs><clipPath id="SvgjsClipPath1002"><path d=" M 5.926171875 -0.18535156249999984 h 2.0601690695242225 v 1.5655273437499997 h -2.0601690695242225 Z"></path></clipPath><clipPath id="b176f64d2-2757-4aef-ab56-23397c69b55c848b6de2-46cf-47d3-838b-6c3153d3eaf3"><path d=" M 5.923520990861763 -0.18800244663823618 L 7.988991828662458 -0.18800244663823618 L 7.988991828662458 1.3828266653882362 L 5.923520990861763 1.3828266653882362 Z"></path></clipPath></defs></svg>